<svg xmlns="http://www.w3.org/2000/svg" xmlns:xlink="http://www.w3.org/1999/xlink" viewBox="0 0 541.04 172.235"><defs><linearGradient id="linear-gradient" x1="361" y1="95.654" x2="403.909" y2="95.654" gradientUnits="userSpaceOnUse"><stop offset="0" stop-color="#57bf98"/><stop offset="1" stop-color="#4fb7ab"/></linearGradient><linearGradient id="linear-gradient-2" x1="456" y1="101.211" x2="456.5" y2="101.211" gradientUnits="userSpaceOnUse"><stop offset="0.986" stop-color="#41b2be"/><stop offset="1" stop-color="#41b2bf"/></linearGradient><linearGradient id="linear-gradient-3" x1="449.386" y1="100.792" x2="470.796" y2="100.792" gradientUnits="userSpaceOnUse"><stop offset="0" stop-color="#3eb0c3"/><stop offset="1" stop-color="#33adcd"/></linearGradient><linearGradient id="linear-gradient-4" x1="474.706" y1="96.863" x2="497.603" y2="96.863" gradientUnits="userSpaceOnUse"><stop offset="0" stop-color="#30accf"/><stop offset="1" stop-color="#26a9d9"/></linearGradient><linearGradient id="linear-gradient-5" x1="84.841" y1="12.059" x2="84.841" y2="123.766" gradientUnits="userSpaceOnUse"><stop offset="0" stop-color="#58bf96"/><stop offset="1" stop-color="#25a9d7"/></linearGradient><linearGradient id="linear-gradient-6" x1="100.681" y1="127.319" x2="100.681" y2="147.852" xlink:href="#linear-gradient-5"/><linearGradient id="linear-gradient-7" x1="73.107" y1="127.481" x2="73.107" y2="147.852" gradientUnits="userSpaceOnUse"><stop offset="0" stop-color="#57bf97"/><stop offset="1" stop-color="#29aad5"/></linearGradient><linearGradient id="linear-gradient-8" x1="73.792" y1="57.514" x2="73.792" y2="65.824" gradientUnits="userSpaceOnUse"><stop offset="0" stop-color="#57bd99"/><stop offset="1" stop-color="#30acd0"/></linearGradient><linearGradient id="linear-gradient-9" x1="99.689" y1="57.514" x2="99.689" y2="65.824" gradientUnits="userSpaceOnUse"><stop offset="0" stop-color="#58bf96"/><stop offset="1" stop-color="#30acd0"/></linearGradient></defs><g id="Layer_1" data-name="Layer 1"><path d="M217.706,119.426H205.025l-9.613-15.367H186.3l.434,15.367H176.412v-47.1H197.77c13.225,0,18.112,5.574,18.112,15.714,0,7.138-3.433,12.3-9.706,14.371ZM186.735,81.2V94.882h11.794c4.762,0,7.1-2.741,7.1-7.277q0-6.405-7.255-6.405Z" fill="#737473"/><path d="M227.57,114.606A17.958,17.958,0,0,1,222,101.2a18.222,18.222,0,0,1,5.57-13.476c3.476-3.335,8.428-5.347,14.549-5.347a19.192,19.192,0,0,1,13.94,5.685,17.424,17.424,0,0,1,5.52,13.138q0,8.406-5.215,13.409a20.26,20.26,0,0,1-14.516,5.593A19.678,19.678,0,0,1,227.57,114.606Zm14.435-3.469a9.752,9.752,0,0,0,6.76-2.9c1.435-1.668,2.294-3.7,2.294-7.038,0-6.671-4.217-9.94-9.13-9.94-4.837,0-9.4,3.269-9.4,9.94a10.818,10.818,0,0,0,2.647,7.332C236.612,110.2,239.586,111.137,242.005,111.137Z" fill="#737473"/><path d="M302.22,88.091c2.8,3.469,4.148,8.453,4.148,13.856s-1.36,9.807-4.156,13.276c-2.8,3.536-6.8,5.27-11.941,5.27a14.472,14.472,0,0,1-11.639-5.4l-.605,4.336-9.086.1V69.911l10.235-.058-.037,17.765c2.8-2.8,6.971-5.341,10.977-5.341A15.476,15.476,0,0,1,302.22,88.091Zm-5.514,13.615c0-6.338-3.912-10.347-8.824-10.347s-8.706,3.59-8.706,9.928c0,6.4,3.234,10.267,8.147,10.267S296.706,108.11,296.706,101.706Z" fill="#737473"/><path d="M318.677,114.707c-3.476-3.335-6.215-7.8-6.215-13.409s2.739-10.073,6.215-13.476c3.477-3.335,7.238-5,13.36-5s11.958,1.667,15.435,5c3.477,3.4,5.215,7.873,5.215,13.476s-1.738,10.074-5.215,13.409c-3.477,3.4-8.237,5.071-14.359,5.071S322.154,118.11,318.677,114.707Zm14.436-3.469a7.192,7.192,0,0,0,5.744-2.535,11.235,11.235,0,0,0,3.172-7.4c0-6.671-4.079-9.94-8.992-9.94-4.836,0-9.478,3.269-9.478,9.94,0,3.335,1.873,5.871,3.309,7.539A8.162,8.162,0,0,0,333.113,111.238Z" fill="#737473"/><path d="M384.344,91.932l19.463,27.421H391.454l-14.807-20-5.177,5.638v14.362L361,119.235l.353-47.176,9.434-.105-.121,20.4L389.745,72h14.164ZM361,119.235l.353-47.176,9.434-.105" fill="url(#linear-gradient)"/><path d="M439.9,96.63v23.026h-9.909v-4.348c-3.324,3.35-7.147,4.28-11.868,4.28-6.451,0-11.206-3.781-11.206-10.411s5.264-12.059,12.912-12.059L429.986,98.7V97.628c0-4.063-2.659-6.131-6.981-6.131-3.458.071-7.2-.133-10.593,2.077l-2.6-7.986c5.054-3.208,10.209-2.752,15.662-2.823C433.982,82.765,439.9,87.505,439.9,96.63Zm-9.909,7.8-6.986-1.1c-4.057,0-6.312,1.29-6.312,4.784s2.3,4.745,5.562,4.745c2.992,0,5.675-1.89,7.736-3.529Z" fill="url(#linear-gradient-2)"/><path d="M470.8,93.044c-6.189,0-7.859,1.506-9.414,4.1-.643,1.075-1.147,2.029-2.088,3.847v18.179h-9.908V83.528h9.908v6.63c3.525-4.634,3.677-7.482,11.5-7.746Z" fill="url(#linear-gradient-3)"/><path d="M489.382,83.235l7.907-.117v8.949l-8.024-.052v14.044c0,3.636.639,4.97,3.764,4.97a8.154,8.154,0,0,0,4.486-1.176l.088,7.985a12.549,12.549,0,0,1-7.588,2.074c-3.259.071-5.959-.541-8.154-2.679-2.194-2.21-2.937-5.276-2.937-9.268v-15.9l-4.218-.1V83.018l4.218.1-.042-9.309,10.459.117Z" fill="url(#linear-gradient-4)"/><path d="M179.1,147.4a5.636,5.636,0,0,1-2.289-1.452l.6-1.254a5.689,5.689,0,0,0,2.092,1.352,7.216,7.216,0,0,0,2.692.518,4.7,4.7,0,0,0,2.92-.759,2.385,2.385,0,0,0,.973-1.97,2.039,2.039,0,0,0-.528-1.473,3.527,3.527,0,0,0-1.294-.847,20.134,20.134,0,0,0-2.134-.649,21.489,21.489,0,0,1-2.609-.847,4.3,4.3,0,0,1-1.667-1.243,3.445,3.445,0,0,1-.694-2.266,3.881,3.881,0,0,1,2.361-3.652,6.922,6.922,0,0,1,2.982-.572,8.3,8.3,0,0,1,2.434.363,6.813,6.813,0,0,1,2.06,1l-.517,1.3a6.971,6.971,0,0,0-1.947-.957,6.9,6.9,0,0,0-2.03-.32,4.478,4.478,0,0,0-2.868.782,2.475,2.475,0,0,0-.963,2.013,2.08,2.08,0,0,0,.528,1.485,3.434,3.434,0,0,0,1.325.858q.8.3,2.144.648a20.734,20.734,0,0,1,2.578.826,4.23,4.23,0,0,1,1.667,1.232,3.39,3.39,0,0,1,.684,2.232,3.954,3.954,0,0,1-.591,2.123,4.01,4.01,0,0,1-1.812,1.519,7.172,7.172,0,0,1-3,.561A8.811,8.811,0,0,1,179.1,147.4Z" fill="#737473"/><path d="M207.1,137.427a5.129,5.129,0,0,1,1.211,3.685v6.252l-1.793.033v-6.1c0-1.2.04-2.152-.526-2.783a3.088,3.088,0,0,0-2.423-.946,3.6,3.6,0,0,0-2.786,1.111c-.683.74-.53,1.8-.53,3.1V147.4l-1.721-.033.093-15.074h1.226l-.093,5.984a4.091,4.091,0,0,1,1.657-1.563,5.178,5.178,0,0,1,2.423-.549A4.3,4.3,0,0,1,207.1,137.427Z" fill="#737473"/><path d="M227.05,137.294a4.54,4.54,0,0,1,1.139,3.356v7.172H226.78v-1.8a3.446,3.446,0,0,1-1.46,1.407,4.844,4.844,0,0,1-2.288.507,4.3,4.3,0,0,1-2.9-.925,3.308,3.308,0,0,1-.072-4.817,4.7,4.7,0,0,1,3.2-.9h3.458v-.705a3.068,3.068,0,0,0-.787-2.276,3.13,3.13,0,0,0-2.3-.781,5.529,5.529,0,0,0-1.988.363,4.905,4.905,0,0,0-1.636,1l-.663-1.166a5.772,5.772,0,0,1,1.988-1.155,7.306,7.306,0,0,1,2.444-.407A4.45,4.45,0,0,1,227.05,137.294Zm-1.657,8.8a3.579,3.579,0,0,0,1.325-1.749v-1.892H223.3q-2.794,0-2.795,2.068a1.934,1.934,0,0,0,.725,1.595,3.159,3.159,0,0,0,2.029.583A3.7,3.7,0,0,0,225.393,146.1Z" fill="#737473"/><path d="M242.8,136.755a5,5,0,0,1,2.537-.593v1.518l-.353-.022a3.373,3.373,0,0,0-2.691,1.122,4.649,4.649,0,0,0-.974,3.145v5.9h-1.47V136.249h1.408v2.267A3.714,3.714,0,0,1,242.8,136.755Z" fill="#737473"/><path d="M265.03,142.52h-9.112a4.242,4.242,0,0,0,1.305,2.915,4.181,4.181,0,0,0,2.982,1.11,4.468,4.468,0,0,0,1.863-.384,4.073,4.073,0,0,0,1.471-1.133l.828,1.012a4.7,4.7,0,0,1-1.811,1.408,5.818,5.818,0,0,1-2.393.484,5.76,5.76,0,0,1-2.972-.76,5.31,5.31,0,0,1-2.018-2.1,6.288,6.288,0,0,1-.726-3.036,6.517,6.517,0,0,1,.695-3.037,5.2,5.2,0,0,1,1.905-2.089,5.084,5.084,0,0,1,2.723-.748,5.029,5.029,0,0,1,2.712.748,5.168,5.168,0,0,1,1.885,2.079,6.571,6.571,0,0,1,.684,3.047Zm-7.9-3.949a4.3,4.3,0,0,0-1.212,2.783h7.725a4.307,4.307,0,0,0-1.212-2.783,3.823,3.823,0,0,0-5.3,0Z" fill="#737473"/><path d="M305.768,136.654l-3.828,10.633h-1.36l-2.952-8.343-2.791,8.343h-1.36l-3.989-10.633h1.381l3.352,9.429,2.787-9.429h1.239l2.812,9.429,3.39-9.429Z" fill="#737473"/><path d="M324.912,137.427a5.19,5.19,0,0,1,1.187,3.685v6.71h-1.441v-6.556a4.042,4.042,0,0,0-.832-2.75,3,3,0,0,0-2.376-.946,3.5,3.5,0,0,0-2.731,1.111,4.406,4.406,0,0,0-1,3.068v6.073h-1.443V131.5h1.443v6.776a4.026,4.026,0,0,1,1.624-1.563,4.993,4.993,0,0,1,2.375-.549A4.175,4.175,0,0,1,324.912,137.427Z" fill="#737473"/><path d="M344.866,137.324a3.557,3.557,0,0,1,1,2.936l-.062,7.049-1.168-.03.062-1.68a4.054,4.054,0,0,1-1.645,1.437,4.676,4.676,0,0,1-2.244.507,4.161,4.161,0,0,1-2.841-.925,3.356,3.356,0,0,1-.072-4.818,4.553,4.553,0,0,1,3.137-.9h3.391v-.7a2.105,2.105,0,0,0-.651-1.857,3.028,3.028,0,0,0-2.253-.782,5.34,5.34,0,0,0-1.95.364c-.622.241-1.046.405-1.527.58l-.318-1.282c.631-.229.783-.347,1.542-.619a7.051,7.051,0,0,1,2.4-.407A4.306,4.306,0,0,1,344.866,137.324Zm-1.745,8.382a3.581,3.581,0,0,0,1.3-1.749v-1.893h-3.35q-2.74,0-2.741,2.068a1.949,1.949,0,0,0,.711,1.595,3.048,3.048,0,0,0,1.989.583A3.584,3.584,0,0,0,343.121,145.706Z" fill="#737473"/><path d="M363.648,147.118a2.7,2.7,0,0,1-1.006.605,3.767,3.767,0,0,1-1.248.209,2.993,2.993,0,0,1-2.314-.88,3.53,3.53,0,0,1-.813-2.486v-7h-1.909v-1.321h1.909V133.72h1.442v2.529h3.249v1.321h-3.249v6.908a2.3,2.3,0,0,0,.477,1.572,1.728,1.728,0,0,0,1.37.539,2.47,2.47,0,0,0,.864-.153,2.109,2.109,0,0,0,.72-.44Z" fill="#737473"/><path d="M398.641,136.062l-5.522,11.959a5.53,5.53,0,0,1-1.554,2.309,3.359,3.359,0,0,1-2.121.683,4.13,4.13,0,0,1-1.49-.265,3.209,3.209,0,0,1-1.2-.791l.692-1.166a2.691,2.691,0,0,0,2.016.88,1.97,1.97,0,0,0,1.291-.441,3.984,3.984,0,0,0,1-1.5l.483-1.121L387.3,136.062h1.554l4.157,8.834,4.157-8.834Z" fill="#737473"/><path d="M409.83,146.986a5.423,5.423,0,0,1-2.015-2.1,6.64,6.64,0,0,1,0-6.073,5.344,5.344,0,0,1,2.015-2.089,5.9,5.9,0,0,1,5.753,0,5.258,5.258,0,0,1,2,2.089,6.721,6.721,0,0,1,0,6.073,5.336,5.336,0,0,1-2,2.1,5.837,5.837,0,0,1-5.753,0Zm4.986-1.188a3.819,3.819,0,0,0,1.459-1.595,5.533,5.533,0,0,0,0-4.709,3.823,3.823,0,0,0-1.459-1.594,4.247,4.247,0,0,0-4.219,0,3.907,3.907,0,0,0-1.47,1.594,5.449,5.449,0,0,0,0,4.709,3.9,3.9,0,0,0,1.47,1.595,4.247,4.247,0,0,0,4.219,0Z" fill="#737473"/><path d="M439.077,136.062v11.573h-1.428v-2.112a4.176,4.176,0,0,1-1.616,1.639,4.68,4.68,0,0,1-2.351.582,4.577,4.577,0,0,1-3.412-1.264,5.063,5.063,0,0,1-1.249-3.707v-6.711h1.49v6.557a3.989,3.989,0,0,0,.861,2.772,3.153,3.153,0,0,0,2.456.946,3.524,3.524,0,0,0,2.75-1.111,4.434,4.434,0,0,0,1.008-3.091v-6.073Z" fill="#737473"/><path d="M475.23,132.309l-.022,15.325H473.78v-2.288a4.651,4.651,0,0,1-1.774,1.782,5,5,0,0,1-2.487.616,5.414,5.414,0,0,1-2.814-.748,5.219,5.219,0,0,1-1.973-2.09,6.908,6.908,0,0,1,0-6.117,5.149,5.149,0,0,1,1.973-2.078,5.473,5.473,0,0,1,2.814-.737,5.022,5.022,0,0,1,2.424.583,4.677,4.677,0,0,1,1.774,1.705l.021-5.953Zm-3.5,13.488a3.91,3.91,0,0,0,1.469-1.6,5.444,5.444,0,0,0,0-4.707,3.923,3.923,0,0,0-1.469-1.6,4.217,4.217,0,0,0-4.2,0,3.916,3.916,0,0,0-1.469,1.6,5.435,5.435,0,0,0,0,4.707,3.9,3.9,0,0,0,1.469,1.6,4.217,4.217,0,0,0,4.2,0Z" fill="#737473"/><path d="M488.7,146.984a5.4,5.4,0,0,1-2.016-2.1,6.646,6.646,0,0,1,0-6.072,5.342,5.342,0,0,1,2.016-2.09,5.9,5.9,0,0,1,5.753,0,5.275,5.275,0,0,1,2,2.09,6.728,6.728,0,0,1,0,6.072,5.334,5.334,0,0,1-2,2.1,5.824,5.824,0,0,1-5.753,0Zm4.986-1.187a3.829,3.829,0,0,0,1.459-1.6,5.528,5.528,0,0,0,0-4.707,3.841,3.841,0,0,0-1.459-1.6,4.255,4.255,0,0,0-4.22,0,3.916,3.916,0,0,0-1.469,1.6,5.444,5.444,0,0,0,0,4.707,3.9,3.9,0,0,0,1.469,1.6,4.255,4.255,0,0,0,4.22,0Z" fill="#737473"/></g><g id="Layer_4" data-name="Layer 4"><path d="M90.147,10.853a14.648,14.648,0,0,1,3.922,2.257,9.72,9.72,0,0,1-.548,15.272l-1.348.988v8.836c1.107.04,2.17.06,3.23.122a18.345,18.345,0,0,1,3.444.3,4.929,4.929,0,0,1,3.917,5.069c.014.539,0,1.079,0,1.707a34.589,34.589,0,0,1,13.077,11.833c3.306,5.029,4.813,10.609,5.528,16.663,1.134.034,2.2.05,3.275.1,2.108.1,4.217.195,6.324.331,2.242.145,3.763,3,2.979,4.91-.749,1.826-1.523,3.643-2.337,5.44-1.181,2.609-2.408,5.2-3.711,8a23.43,23.43,0,0,1,7.491,7.595,27.8,27.8,0,0,1,3.192,10.071c.64.366,1.24.688,1.818,1.044a11.411,11.411,0,0,1,2.739,16.959c-.5.632-1.081,1.106-1.925.793a1.709,1.709,0,0,1-1.109-1.783,4.125,4.125,0,0,0-.05-1.423,4.7,4.7,0,0,0-1.15-2.065,25.8,25.8,0,0,0-3.7-2.166,2.541,2.541,0,0,0-2.545.2c-.891.5-1.762,1.046-2.666,1.527a3.161,3.161,0,0,0-1.8,2.98c-.007.941.154,1.937-.715,2.657-.987.4-1.6.013-2.266-.771a11.442,11.442,0,0,1,2.716-16.926c.461-.282.926-.559,1.515-.914A12.727,12.727,0,0,0,124.164,101c-.974,2.059-1.916,4.005-2.818,5.969-1.905,4.152-3.742,8.336-5.7,12.466a9.942,9.942,0,0,1-9.449,6.054q-19.08.127-38.161,0a9.805,9.805,0,0,1-9.3-5.949c-2.526-5.367-4.923-10.794-7.382-16.192-.451-.99-.939-1.962-1.4-2.92-3.441.825-5.995,4.971-6.653,9.9a22,22,0,0,1,3.93,3.12c3.535,3.617,3.59,10.243.507,14.342-.2.272-.463.5-.689.757-.49.558-1.148.972-1.789.554a1.962,1.962,0,0,1-.768-1.489c.176-2.5-1.132-3.881-3.222-4.923-3.129-1.56-3.156-1.62-6.17.222-.408.249-.812.505-1.209.772a2.493,2.493,0,0,0-1.086,2.545,5.6,5.6,0,0,1-.015,1.72c-.434,1.539-2.044,1.772-3.145.586a10.248,10.248,0,0,1-2.78-6.448,11.407,11.407,0,0,1,5.722-11.009c.231-.145.48-.261.714-.4s.455-.294.777-.5c.832-8.013,4.668-14.192,11.942-18.2-.608-1.417-1.124-2.738-1.734-4.014Q42.744,84.72,41.1,81.535c-2.134-4.148-5.65-6.118-10.227-6.4a24.747,24.747,0,0,1-3.653-.32c-2.37-.507-3.481-2.259-3.277-4.886a4.228,4.228,0,0,1,3.967-3.738c6.544-.3,12.431,1.391,17.3,5.953A20.112,20.112,0,0,1,46.7,73.885h6.278c1.216-12.7,7.315-22.221,18.507-28.487.027-.528.067-1.062.08-1.6a5.265,5.265,0,0,1,5.413-5.462c1.907-.067,3.818-.012,5.675-.012.525-1.48.649-5.8.327-8.8a32.618,32.618,0,0,1-3.26-3.255C75.771,21.038,77.7,14.16,82.654,11.838a12.906,12.906,0,0,1,2.339-.956A9.414,9.414,0,0,1,90.147,10.853Zm-3.06,41.761H74.164c-.136,0-.273,0-.41,0a9.1,9.1,0,0,0-8.573,11.714,9.286,9.286,0,0,0,14.881,4.591c.81-.625,1.571-1.313,2.394-1.919a7.333,7.333,0,0,1,9.447.024c.766.567,1.474,1.213,2.241,1.781a9.425,9.425,0,0,0,8.446,1.907,9.214,9.214,0,0,0-2.172-18.132C95.978,52.722,91.531,52.616,87.087,52.614ZM53.118,83.039c-.058,0-.573,0-1.252-.006.382.936.241.618.568,1.342.67,1.5,1.005,2.191,1.731,3.82h66.009c.763-1.673,1.385-3.342,2.142-5.24m-64,14.405,2.3,5.161h52.989c.71-1.763,1.416-3.4,2.164-5.254M67.092,116.342c11.813,0,25.565,0,37.379,0,1.5,0,1.93-.011,2.757-.044.7-1.553,1.465-2.872,2.224-4.566H65.207M87.714,24c1.8.3,3.591-2.133,3.541-3.507a3.8,3.8,0,0,0-3.574-3.474A3.492,3.492,0,1,0,87.714,24Z" fill="url(#linear-gradient-5)"/><path d="M110.941,137.6c.289,4.978-4.055,10.251-10.249,10.251a10.266,10.266,0,1,1,.021-20.532C106.261,127.265,111.233,132.074,110.941,137.6Zm-6.185-.084a4.358,4.358,0,0,0-4.207-3.979,4.457,4.457,0,0,0-3.851,4.147,4.2,4.2,0,0,0,3.988,3.946A4.332,4.332,0,0,0,104.756,137.517Z" fill="url(#linear-gradient-6)"/><path d="M83.254,137.8c.287,5.728-5.176,10.156-10.042,10.051a10.184,10.184,0,1,1-.135-20.368C79.131,127.394,83.648,132.636,83.254,137.8Zm-13.9-.153a3.752,3.752,0,0,0,3.693,4,4.035,4.035,0,0,0,4.081-3.955,4.272,4.272,0,0,0-4.04-4.047A3.88,3.88,0,0,0,69.351,137.647Z" fill="url(#linear-gradient-7)"/><path d="M73.8,65.823a3.98,3.98,0,0,1-4.151-4.01,4.036,4.036,0,0,1,3.923-4.284,4.4,4.4,0,0,1,4.378,4.16A4.278,4.278,0,0,1,73.8,65.823Z" fill="url(#linear-gradient-8)"/><path d="M99.692,65.823a3.98,3.98,0,0,1-4.151-4.01,4.036,4.036,0,0,1,3.923-4.284,4.4,4.4,0,0,1,4.378,4.16A4.278,4.278,0,0,1,99.692,65.823Z" fill="url(#linear-gradient-9)"/></g></svg>